<?xml version="1.0" standalone="no"?>
<!DOCTYPE svg PUBLIC "-//W3C//DTD SVG 20010904//EN"
 "http://www.w3.org/TR/2001/REC-SVG-20010904/DTD/svg10.dtd">
<svg version="1.0" xmlns="http://www.w3.org/2000/svg"
 width="316.000000pt" height="316.000000pt" viewBox="0 0 316.000000 316.000000"
 preserveAspectRatio="xMidYMid meet">
<metadata>
Created by potrace 1.11, written by Peter Selinger 2001-2013
</metadata>
<g transform="translate(0.000000,316.000000) scale(0.100000,-0.100000)"
fill="#000000" stroke="none">
<path d="M0 1580 l0 -1580 1580 0 1580 0 0 1580 0 1580 -1580 0 -1580 0 0
-1580z m3150 0 l0 -1570 -1570 0 -1570 0 0 1570 0 1570 1570 0 1570 0 0 -1570z"/>
<path d="M80 1580 l0 -1500 1500 0 1500 0 0 1500 0 1500 -1500 0 -1500 0 0
-1500z m1096 876 c76 -35 121 -101 91 -134 -24 -28 -46 -78 -58 -131 -14 -65
2 -142 41 -205 l29 -46 -27 -6 c-15 -4 -40 -19 -57 -34 -38 -35 -60 -46 -111
-55 -37 -6 -44 -3 -58 17 -9 12 -16 34 -16 48 0 14 -9 54 -20 88 -25 78 -26
195 -4 272 9 30 18 75 21 100 6 74 12 90 36 100 38 15 80 11 133 -14z m-264
-113 c30 -12 37 -20 32 -32 -45 -106 -51 -210 -15 -301 11 -30 21 -56 21 -56
0 -9 -91 -34 -124 -34 -57 0 -70 16 -63 78 5 41 2 50 -18 67 -23 20 -28 42
-26 112 1 25 8 36 31 48 25 13 29 19 20 35 -12 22 -13 70 -2 86 18 27 72 26
144 -3z m733 -773 l-730 -730 -24 25 -25 24 123 128 c68 70 396 399 729 730
l607 603 25 -25 25 -25 -730 -730z m-284 730 c22 -12 62 -42 90 -69 41 -40 49
-53 49 -85 0 -44 -18 -81 -57 -117 -34 -33 -93 -69 -111 -69 -7 0 -25 26 -40
58 -35 75 -36 172 -2 250 12 28 24 52 27 52 2 0 22 -9 44 -20z m-711 -66 c25
-15 27 -20 19 -53 -4 -20 -4 -54 1 -75 7 -33 6 -42 -8 -53 -29 -22 -64 -27
-91 -12 -45 25 -55 154 -15 194 20 20 59 19 94 -1z m1670 -940 c51 -21 72 -58
78 -144 6 -85 -10 -142 -49 -175 l-31 -26 37 -82 c21 -45 49 -106 61 -134 l24
-53 -43 0 -42 0 -56 128 -57 127 -46 3 -46 3 0 -130 0 -131 -40 0 -40 0 0 315
0 315 105 0 c73 0 117 -5 145 -16z"/>
<path d="M1360 2160 c-8 -15 -6 -24 10 -40 16 -16 25 -18 40 -10 22 12 26 40
8 58 -18 18 -46 14 -58 -8z"/>
<path d="M2150 1125 l0 -115 68 0 c93 0 102 11 102 118 0 104 -7 112 -101 112
l-69 0 0 -115z"/>
</g>
</svg>
