<?xml version="1.0" standalone="no"?>
<!DOCTYPE svg PUBLIC "-//W3C//DTD SVG 20010904//EN"
 "http://www.w3.org/TR/2001/REC-SVG-20010904/DTD/svg10.dtd">
<svg version="1.0" xmlns="http://www.w3.org/2000/svg"
 width="224.000000pt" height="224.000000pt" viewBox="0 0 224.000000 224.000000"
 preserveAspectRatio="xMidYMid meet">
<metadata>
Created by potrace 1.11, written by Peter Selinger 2001-2013
</metadata>
<g transform="translate(0.000000,224.000000) scale(0.100000,-0.100000)"
fill="#000000" stroke="none">
<path d="M785 1699 c-148 -14 -257 -72 -307 -164 -23 -41 -28 -63 -28 -123 0
-40 6 -88 14 -106 20 -49 78 -100 151 -132 78 -35 78 -27 -3 -199 -108 -230
-233 -415 -371 -551 -77 -75 -181 -144 -218 -144 -16 0 -23 -6 -23 -19 0 -16
9 -21 43 -26 122 -18 302 81 444 243 88 102 134 174 237 379 60 119 97 181
122 202 34 30 39 32 107 29 l72 -3 3 -230 c2 -126 0 -245 -3 -263 -7 -38 -36
-60 -96 -70 -38 -6 -44 -11 -44 -31 l0 -24 305 -1 c294 -1 307 0 375 22 90 31
111 42 166 90 126 111 139 329 28 456 -39 44 -144 106 -180 106 -32 0 -30 19
3 36 100 51 147 119 156 220 12 150 -72 251 -239 288 -75 16 -587 28 -714 15z
m233 -71 c9 -9 12 -76 12 -239 l0 -227 -32 -5 c-67 -11 -193 0 -239 20 -62 28
-115 77 -129 119 -18 54 -8 151 20 209 26 53 93 106 154 124 47 14 200 13 214
-1z m426 -18 c88 -44 126 -113 126 -226 -1 -101 -50 -175 -137 -205 -21 -7
-83 -13 -138 -14 l-100 0 -3 228 -2 228 22 9 c43 18 178 6 232 -20z m-44 -525
c77 -8 165 -58 205 -117 59 -85 70 -229 26 -317 -25 -48 -87 -96 -145 -112
-56 -16 -177 -14 -212 2 -73 35 -87 101 -82 374 l3 170 45 6 c25 3 59 5 75 3
17 -2 55 -6 85 -9z"/>
</g>
</svg>
